<svg id="svg" version="1.1" width="1024" height="1024" xmlns="http://www.w3.org/2000/svg">
    <path d="M499.418 168.595 C 498.823 168.848,467.998 169.155,430.918 169.277 L 363.500 169.500 363.000 188.578 C 362.425 210.504,363.043 208.796,350.376 223.500 C 346.585 227.900,340.651 235.100,337.187 239.500 C 333.724 243.900,330.082 248.400,329.095 249.500 C 327.438 251.345,327.337 253.480,327.783 277.088 L 328.266 302.677 313.883 303.335 C 295.358 304.182,249.559 304.191,239.598 303.349 L 231.894 302.698 232.512 297.099 C 233.640 286.874,235.184 280.603,239.182 270.000 C 246.225 251.322,254.913 237.112,266.925 224.625 C 287.132 203.617,311.185 190.603,336.500 186.980 C 347.951 185.342,349.000 184.460,349.000 176.477 L 349.000 170.000 345.907 170.000 C 344.206 170.000,338.243 170.927,332.657 172.060 C 303.079 178.059,282.121 189.214,259.804 210.838 C 246.280 223.943,237.853 235.724,230.071 252.407 C 223.696 266.073,221.777 272.282,218.900 288.545 C 216.916 299.756,216.592 305.135,216.489 328.500 C 216.424 343.350,216.287 373.908,216.185 396.407 L 216.000 437.315 198.988 436.673 C 181.019 435.994,178.399 435.311,175.716 430.608 C 174.876 429.135,174.345 418.107,173.953 394.000 C 173.555 369.501,173.036 358.848,172.161 357.250 C 170.488 354.192,162.622 353.969,161.035 356.934 C 160.375 358.168,160.000 372.325,160.000 396.028 L 160.000 433.187 167.571 441.343 C 171.735 445.829,176.347 450.171,177.821 450.991 C 179.791 452.087,185.133 452.616,198.000 452.991 L 215.500 453.500 215.500 474.500 L 215.500 495.500 196.706 495.749 L 177.912 495.998 173.158 491.551 C 165.944 484.803,160.609 483.466,153.218 486.553 C 141.951 491.259,137.560 503.017,143.864 511.600 C 149.148 518.794,151.492 520.336,157.842 520.795 C 164.696 521.291,170.122 519.020,174.490 513.829 L 177.233 510.570 196.220 510.472 C 208.817 510.408,215.326 510.732,215.562 511.437 C 215.757 512.022,216.105 557.950,216.335 613.500 L 216.753 714.500 219.313 726.000 C 226.261 757.215,237.248 778.215,257.000 798.037 C 273.263 814.358,288.962 824.070,310.000 830.826 C 333.303 838.309,334.965 838.523,367.955 838.307 C 384.155 838.201,398.493 837.842,399.817 837.510 C 402.151 836.924,402.170 836.845,400.428 834.920 C 399.440 833.829,397.124 832.004,395.282 830.866 C 393.440 829.727,390.818 827.155,389.455 825.149 L 386.977 821.502 360.738 821.452 C 336.987 821.407,333.742 821.195,326.500 819.223 C 305.288 813.444,285.209 802.301,269.051 787.341 C 252.543 772.057,239.790 748.149,234.166 721.943 C 231.773 710.790,231.347 695.016,230.408 582.750 L 229.800 510.000 237.219 510.000 L 244.637 510.000 245.898 530.750 C 247.519 557.432,249.270 571.560,253.505 592.145 C 260.284 625.096,270.902 655.041,287.476 687.953 C 292.378 697.686,308.681 721.986,318.996 734.933 C 341.318 762.953,383.002 800.114,418.000 823.197 C 436.088 835.126,457.955 845.674,472.378 849.428 C 479.437 851.265,503.666 853.667,504.700 852.633 C 505.819 851.514,505.123 836.694,503.917 835.948 C 503.333 835.588,498.276 835.025,492.678 834.697 C 463.676 832.998,443.272 823.818,404.500 795.026 C 399.550 791.350,387.963 781.723,378.750 773.634 L 362.000 758.926 362.000 730.403 L 362.000 701.880 389.250 702.579 C 420.250 703.374,416.473 702.325,430.500 714.043 C 451.285 731.407,473.528 740.615,496.282 741.274 C 502.264 741.448,504.301 741.153,505.089 740.000 C 506.056 738.586,505.610 724.796,504.542 723.068 C 504.284 722.650,498.378 722.004,491.419 721.632 C 484.459 721.260,476.680 720.490,474.132 719.920 C 464.019 717.659,443.249 706.175,436.649 699.195 L 433.798 696.180 446.068 688.919 C 467.809 676.054,473.853 674.577,494.441 677.102 C 505.101 678.410,506.000 677.799,506.000 669.243 C 506.000 661.310,504.976 660.006,498.715 659.969 C 495.847 659.952,490.164 659.505,486.087 658.976 C 470.829 656.996,460.351 660.610,435.393 676.464 L 418.659 687.094 390.080 686.797 L 361.500 686.500 361.500 647.340 L 361.500 608.180 375.168 607.840 C 382.686 607.653,389.097 607.239,389.416 606.919 C 389.735 606.599,390.214 603.773,390.480 600.638 C 390.946 595.165,390.856 594.895,388.233 593.875 C 386.626 593.250,380.692 592.975,373.828 593.208 L 362.157 593.604 361.820 570.052 L 361.482 546.500 367.949 539.000 C 374.779 531.079,394.199 511.564,415.322 491.394 C 423.452 483.630,428.000 478.556,428.000 477.250 C 428.000 474.460,422.697 469.000,419.989 469.000 C 418.536 469.000,414.118 472.566,407.083 479.419 C 393.102 493.038,385.639 499.961,384.915 499.982 C 384.594 499.992,381.222 503.712,377.422 508.250 C 373.622 512.788,365.231 521.914,358.774 528.532 L 347.034 540.563 346.767 567.032 L 346.500 593.500 339.966 593.805 L 333.431 594.111 296.164 556.976 L 258.897 519.841 259.198 515.171 L 259.500 510.500 290.361 510.235 L 321.222 509.971 325.072 514.344 C 337.767 528.767,360.849 517.009,355.903 498.639 C 354.490 493.392,349.451 488.643,343.037 486.512 C 338.421 484.979,337.602 484.974,332.542 486.445 C 328.517 487.615,326.312 488.978,324.276 491.555 L 321.500 495.069 291.500 494.891 C 275.000 494.793,261.050 494.546,260.500 494.343 C 259.855 494.106,259.500 479.316,259.500 452.737 L 259.500 411.500 276.895 394.164 C 294.844 376.276,301.260 371.171,309.000 368.621 C 326.636 362.810,341.957 360.790,369.000 360.707 C 396.701 360.622,398.957 361.110,423.500 372.510 C 431.723 376.330,447.193 389.008,457.789 400.612 L 464.993 408.500 465.008 436.500 C 465.016 451.900,465.308 486.649,465.657 513.719 L 466.291 562.938 462.503 567.562 C 460.419 570.105,455.615 574.504,451.827 577.339 C 447.141 580.846,444.278 583.859,442.871 586.767 C 440.979 590.674,440.902 591.618,441.974 597.770 C 442.618 601.471,444.030 605.931,445.111 607.680 C 451.385 617.830,472.019 628.461,493.278 632.493 C 497.647 633.322,501.778 634.000,502.459 634.000 C 503.980 634.000,506.552 617.152,505.232 615.832 C 504.747 615.347,500.334 614.494,495.425 613.937 C 483.970 612.637,471.850 609.613,466.615 606.751 C 463.701 605.157,461.801 603.089,460.104 599.667 C 457.814 595.049,457.780 594.686,459.320 591.455 C 460.332 589.334,462.484 587.283,465.101 585.948 C 469.587 583.660,470.348 583.986,471.615 588.740 C 472.024 590.275,473.359 591.270,475.856 591.900 C 481.543 593.336,502.588 595.372,504.432 594.664 C 505.803 594.138,506.038 592.778,505.794 586.764 L 505.500 579.500 496.500 578.782 C 491.550 578.387,486.038 577.805,484.250 577.487 L 481.000 576.909 480.897 563.705 C 480.841 556.442,480.503 517.875,480.147 478.000 L 479.500 405.500 472.173 395.754 C 464.917 386.104,448.338 369.751,441.072 365.078 L 437.306 362.656 436.726 313.578 C 436.407 286.585,436.451 264.189,436.823 263.809 C 437.195 263.430,444.925 263.021,454.000 262.902 L 470.500 262.684 470.798 267.177 C 471.069 271.268,470.735 272.030,467.048 275.717 C 463.424 279.340,463.000 280.275,463.004 284.632 C 463.013 297.298,476.527 303.914,487.162 296.459 C 494.683 291.188,495.001 282.211,487.938 274.548 L 484.000 270.276 484.000 260.197 C 484.000 254.262,483.570 249.852,482.954 249.472 C 482.379 249.116,471.691 248.752,459.204 248.663 L 436.500 248.500 436.526 217.000 L 436.552 185.500 470.526 185.000 L 504.500 184.500 504.791 180.500 C 505.405 172.055,503.131 167.017,499.418 168.595 M521.750 169.556 C 521.337 169.984,521.000 173.746,521.000 177.917 L 521.001 185.500 596.750 185.660 C 678.710 185.834,681.364 185.983,700.294 191.468 C 718.968 196.880,739.886 210.021,755.617 226.225 C 767.086 238.039,770.015 242.053,776.243 254.500 C 785.968 273.934,789.667 288.116,790.849 310.500 C 791.314 319.300,791.625 411.775,791.541 516.000 C 791.375 721.158,791.547 714.534,785.854 734.908 C 775.789 770.925,749.472 798.697,712.588 812.224 C 695.938 818.331,685.211 820.227,665.123 820.613 C 652.368 820.858,646.285 821.348,645.242 822.214 C 644.415 822.901,641.039 827.008,637.739 831.342 C 633.061 837.488,632.045 839.414,633.121 840.096 C 636.736 842.385,686.421 838.828,703.133 835.082 C 718.312 831.681,734.820 824.643,749.000 815.528 C 767.221 803.816,781.457 788.590,792.620 768.875 C 799.252 757.162,801.303 751.984,803.474 741.472 C 808.349 717.873,808.209 724.010,808.024 541.500 C 807.929 447.450,807.475 353.400,807.016 332.500 L 806.181 294.500 802.711 280.894 C 798.395 263.969,792.798 251.076,783.358 236.311 C 774.275 222.104,769.040 215.933,758.644 207.178 C 742.651 193.709,725.110 183.806,705.500 177.174 C 685.657 170.463,682.040 170.204,597.500 169.449 C 556.250 169.080,522.163 169.128,521.750 169.556 M424.036 187.795 C 424.055 189.283,424.481 203.083,424.981 218.463 C 425.619 238.082,425.572 246.810,424.823 247.713 C 424.087 248.600,420.749 249.000,414.089 249.000 L 404.424 249.000 400.862 244.740 C 398.892 242.383,394.752 239.190,391.596 237.593 C 386.147 234.836,385.647 234.761,380.473 235.919 C 376.054 236.908,374.336 237.947,371.160 241.556 C 362.132 251.812,363.505 263.063,374.839 271.708 C 378.378 274.407,380.048 275.000,384.110 275.000 C 392.228 275.000,399.323 271.088,402.589 264.812 C 403.763 262.556,404.511 262.191,407.244 262.544 C 409.035 262.776,413.552 263.137,417.282 263.348 C 421.012 263.559,424.322 263.988,424.636 264.303 C 424.950 264.617,424.875 285.152,424.468 309.937 C 423.627 361.187,424.621 356.933,414.531 352.471 C 400.213 346.139,395.814 345.495,367.250 345.552 L 341.000 345.604 341.000 332.302 L 341.000 319.000 346.750 318.929 C 361.696 318.743,397.043 317.290,397.490 316.844 C 397.766 316.568,398.254 314.353,398.574 311.921 C 399.628 303.921,400.299 304.107,369.127 303.784 L 341.754 303.500 341.779 280.637 L 341.805 257.775 345.765 253.637 C 347.943 251.362,351.650 246.800,354.003 243.500 C 356.356 240.200,359.529 236.150,361.053 234.500 C 365.336 229.863,375.536 213.940,376.931 209.711 C 377.802 207.070,377.968 203.090,377.480 196.573 C 376.850 188.174,376.962 187.120,378.581 186.214 C 379.630 185.627,389.501 185.182,402.192 185.148 L 424.000 185.091 424.036 187.795 M518.905 231.112 C 518.529 351.888,519.126 592.049,519.809 594.500 C 521.578 600.855,528.574 599.077,538.585 589.727 C 547.912 581.016,549.075 578.621,547.917 570.500 C 546.579 561.117,546.729 427.939,548.085 420.615 C 549.658 412.118,554.709 395.206,556.929 391.000 C 565.642 374.492,572.805 365.944,584.235 358.414 C 598.865 348.776,613.016 343.464,634.466 339.558 C 659.640 334.974,691.588 335.349,711.231 340.458 C 731.469 345.722,739.428 349.894,757.177 364.545 C 766.940 372.604,767.243 372.770,765.938 369.337 C 765.357 367.809,764.264 363.329,763.508 359.380 C 758.661 334.044,740.460 290.756,728.240 275.500 C 726.918 273.850,722.548 268.000,718.528 262.500 C 714.509 257.000,709.478 250.925,707.349 249.000 C 705.220 247.075,702.583 244.356,701.489 242.959 C 700.395 241.561,695.450 237.134,690.500 233.120 C 675.668 221.094,650.846 210.035,628.500 205.496 C 614.003 202.552,603.343 201.883,561.750 201.312 L 519.000 200.725 518.905 231.112 M281.938 251.675 C 276.895 256.231,274.999 259.792,275.004 264.700 C 275.015 275.742,287.966 282.659,298.500 277.249 C 304.191 274.326,307.078 270.837,307.711 266.117 C 308.473 260.437,306.526 256.462,300.744 251.892 C 296.538 248.567,295.106 248.000,290.913 248.000 C 286.665 248.000,285.459 248.494,281.938 251.675 M389.365 252.073 C 392.763 254.746,392.763 258.254,389.365 260.927 C 386.014 263.563,384.204 263.541,381.314 260.826 C 378.316 258.008,378.272 253.623,381.223 251.557 C 384.204 249.468,386.217 249.596,389.365 252.073 M293.483 259.626 C 297.800 263.942,291.555 270.622,287.030 266.527 C 284.381 264.130,284.454 261.496,287.223 259.557 C 290.047 257.579,291.451 257.594,293.483 259.626 M481.750 282.819 C 483.448 284.942,483.321 287.536,481.429 289.429 C 479.173 291.684,475.372 291.370,473.557 288.777 C 471.582 285.959,471.595 285.784,473.999 282.728 C 476.188 279.945,479.483 279.984,481.750 282.819 M162.500 290.051 C 154.987 292.281,148.000 301.413,148.000 309.000 C 148.000 323.079,162.649 331.102,176.542 324.633 C 182.949 321.649,185.134 318.304,185.715 310.590 C 186.339 302.309,183.470 296.832,176.475 292.950 C 170.559 289.667,166.575 288.841,162.500 290.051 M170.777 303.557 C 172.415 304.703,173.000 306.120,173.000 308.934 C 173.000 313.080,171.905 314.484,167.885 315.493 C 164.026 316.461,159.450 312.329,160.361 308.699 C 161.137 305.604,164.691 302.000,166.966 302.000 C 167.840 302.000,169.555 302.701,170.777 303.557 M327.082 319.551 C 328.174 320.225,328.338 347.992,327.250 348.017 C 323.844 348.096,311.778 351.445,305.362 354.093 C 292.779 359.285,286.730 364.069,265.209 385.853 L 244.918 406.391 245.607 421.195 L 246.297 436.000 238.707 436.000 C 234.533 436.000,230.909 435.661,230.653 435.248 C 230.397 434.834,230.052 408.637,229.885 377.033 L 229.582 319.571 232.041 318.803 C 234.791 317.945,325.640 318.659,327.082 319.551 M348.000 391.035 C 339.459 392.049,330.940 394.984,317.500 401.541 C 304.922 407.678,282.674 422.751,282.144 425.495 C 281.901 426.755,284.660 430.103,290.877 436.094 C 315.398 459.722,349.290 473.564,373.945 470.022 C 393.019 467.281,439.156 447.182,443.042 439.921 C 444.769 436.695,444.059 434.348,439.943 429.673 C 434.377 423.349,419.063 410.628,410.000 404.800 C 400.686 398.809,384.814 392.539,375.308 391.093 C 367.344 389.883,357.873 389.862,348.000 391.035 M643.565 392.589 C 633.041 395.194,618.331 401.620,610.322 407.111 C 598.881 414.955,589.151 426.666,586.814 435.407 C 585.707 439.545,585.784 440.236,587.635 442.738 C 592.505 449.321,598.325 452.458,630.174 465.665 C 643.147 471.045,664.684 472.524,678.590 468.990 C 687.265 466.785,700.447 460.853,707.589 455.939 C 715.509 450.490,724.000 441.521,724.000 438.604 C 724.000 434.078,718.943 435.128,703.836 442.794 C 686.145 451.770,676.384 454.938,664.118 455.686 C 653.882 456.309,639.337 454.449,630.201 451.347 C 623.098 448.936,605.373 439.957,601.758 436.940 L 598.558 434.268 601.414 430.523 C 604.176 426.903,616.287 418.363,624.500 414.245 C 626.700 413.142,632.775 410.723,638.000 408.870 C 647.317 405.565,647.799 405.502,663.000 405.623 C 682.021 405.775,688.941 407.411,707.258 416.086 C 725.314 424.638,729.982 425.044,725.100 417.638 C 720.517 410.687,706.470 401.404,692.676 396.213 C 674.996 389.558,660.217 388.468,643.565 392.589 M382.134 407.992 C 387.045 409.637,394.494 412.866,398.688 415.168 C 408.854 420.747,425.426 434.026,423.911 435.379 C 421.434 437.590,394.098 449.557,386.120 451.922 C 368.950 457.013,352.472 455.928,334.990 448.555 C 327.264 445.296,309.846 434.952,304.500 430.447 L 301.500 427.918 304.310 425.624 C 308.982 421.809,329.974 411.399,338.500 408.669 C 348.718 405.398,349.385 405.299,362.352 405.136 C 371.960 405.016,374.229 405.343,382.134 407.992 M761.497 436.361 C 755.449 439.310,748.846 442.495,746.823 443.440 C 744.801 444.385,738.276 449.643,732.323 455.125 C 726.371 460.607,718.357 467.202,714.515 469.780 C 706.803 474.954,691.878 481.349,682.329 483.571 C 673.990 485.512,653.432 485.514,644.298 483.576 C 634.055 481.402,612.796 473.283,605.606 468.798 C 594.976 462.168,576.043 453.366,566.391 450.567 C 561.691 449.203,561.519 450.575,561.226 491.902 C 561.075 513.131,561.300 536.106,561.726 542.958 L 562.500 555.415 566.409 556.225 C 571.933 557.369,580.413 562.468,584.013 566.810 C 585.695 568.840,588.289 572.975,589.777 576.000 C 592.087 580.695,592.534 583.037,592.833 592.000 C 593.130 600.903,592.852 603.380,591.008 608.282 C 586.464 620.359,578.464 627.583,556.818 639.153 C 543.422 646.313,533.429 650.433,523.178 653.024 L 518.856 654.116 519.345 662.308 C 519.614 666.814,520.209 672.750,520.667 675.500 L 521.500 680.500 537.500 680.529 L 553.500 680.557 564.886 684.798 C 571.149 687.130,579.249 689.691,582.886 690.489 C 590.568 692.175,609.398 693.986,619.500 694.010 C 629.446 694.034,630.539 694.522,633.865 700.415 C 637.704 707.218,639.220 712.720,637.924 715.143 C 637.061 716.754,635.643 717.003,627.215 717.024 C 609.980 717.066,609.663 717.249,598.185 733.758 C 594.712 738.753,587.962 746.898,583.185 751.858 C 576.282 759.026,573.064 761.549,567.500 764.156 C 560.601 767.387,560.202 767.448,539.921 768.370 L 519.341 769.305 519.213 793.322 C 519.142 806.531,518.817 818.557,518.490 820.045 C 517.565 824.256,519.862 825.695,528.714 826.450 C 547.260 828.032,567.614 821.484,579.328 810.165 C 584.884 804.797,586.994 801.267,587.015 797.300 C 587.027 795.125,587.247 794.835,588.000 796.000 C 588.533 796.825,588.976 799.335,588.985 801.579 C 589.039 816.134,561.945 832.082,532.000 835.122 C 526.225 835.708,520.938 836.651,520.250 837.216 C 519.488 837.843,519.000 840.736,519.000 844.622 L 519.000 851.000 522.276 851.000 C 527.581 851.000,541.952 849.105,549.500 847.410 C 571.639 842.438,599.049 829.908,616.509 816.779 C 622.564 812.225,628.450 807.600,629.588 806.500 C 661.191 775.960,665.342 771.409,694.027 735.854 C 721.076 702.326,746.426 645.908,757.542 594.500 C 758.493 590.100,760.132 583.165,761.184 579.088 C 767.903 553.049,771.690 524.133,773.297 486.601 C 774.517 458.099,774.467 431.000,773.193 431.000 C 772.809 431.000,767.546 433.412,761.497 436.361 M245.770 473.114 L 246.040 493.728 238.770 494.257 C 234.771 494.548,231.162 494.582,230.750 494.334 C 229.798 493.760,229.756 453.577,230.706 452.627 C 231.095 452.239,234.582 452.051,238.456 452.210 L 245.500 452.500 245.770 473.114 M164.377 497.286 C 165.700 498.254,166.057 499.674,165.818 503.013 C 165.435 508.365,162.700 510.348,157.685 508.910 C 154.103 507.882,152.482 506.393,151.545 503.267 C 150.017 498.168,159.524 493.738,164.377 497.286 M343.281 499.163 C 344.643 500.994,345.060 502.625,344.618 504.384 C 342.897 511.243,332.000 509.406,332.000 502.257 C 332.000 495.972,339.401 493.942,343.281 499.163 M294.058 576.250 L 326.022 608.500 336.761 609.000 C 346.174 609.438,347.490 609.716,347.417 611.250 C 347.371 612.212,347.258 629.425,347.167 649.500 L 347.000 686.000 325.513 686.000 L 304.027 686.000 302.655 682.750 C 301.901 680.962,298.537 673.650,295.179 666.500 C 287.737 650.649,277.830 624.818,274.492 612.561 C 271.267 600.715,263.392 564.033,262.564 557.000 C 262.208 553.975,261.671 549.813,261.370 547.750 C 261.070 545.688,261.110 544.000,261.459 544.000 C 261.808 544.000,276.478 558.513,294.058 576.250 M346.770 722.263 C 346.919 733.668,346.694 742.999,346.270 742.997 C 345.221 742.993,326.867 720.685,319.650 710.641 L 313.800 702.500 328.650 701.951 C 336.818 701.649,344.175 701.429,345.000 701.464 C 346.274 701.517,346.541 704.650,346.770 722.263 M586.917 707.404 C 586.688 707.626,571.514 708.025,553.198 708.290 C 534.882 708.554,519.661 709.006,519.373 709.293 C 518.056 710.610,519.564 743.613,520.981 744.489 C 522.276 745.288,544.263 743.027,550.417 741.461 C 557.851 739.570,572.962 732.809,578.949 728.695 C 589.465 721.471,595.423 714.335,594.354 710.246 C 593.756 707.958,588.440 705.927,586.917 707.404 M735.000 729.872 C 732.571 730.566,732.492 730.874,732.216 740.699 C 732.002 748.317,731.582 750.947,730.512 751.357 C 729.731 751.657,724.563 752.214,719.029 752.595 C 707.508 753.389,707.656 753.243,708.194 763.314 L 708.500 769.044 727.736 769.392 C 741.103 769.633,747.254 769.398,747.898 768.620 C 748.408 768.004,748.976 758.950,749.162 748.500 L 749.500 729.500 743.500 729.329 C 740.200 729.234,736.375 729.479,735.000 729.872 M475.021 772.116 C 468.879 774.566,463.000 783.244,463.000 789.858 C 463.000 798.390,471.147 807.573,479.677 808.656 C 490.478 810.027,501.067 792.696,495.705 782.424 C 493.588 778.369,489.190 774.394,484.782 772.553 C 480.565 770.791,478.565 770.702,475.021 772.116 M484.800 786.200 C 486.597 787.997,486.248 792.473,484.105 795.119 C 482.492 797.110,481.798 797.313,479.457 796.480 C 477.943 795.941,475.802 794.288,474.700 792.807 C 472.800 790.256,472.783 789.980,474.371 787.557 C 475.678 785.561,476.875 785.000,479.823 785.000 C 481.900 785.000,484.140 785.540,484.800 786.200 "
          stroke="none" fill="black" fill-rule="evenodd"></path>
</svg>